# xmcd
#
# Track frame offsets: 
#        150
#        18265
#        33852
#
# Disc length: 672 seconds
#
# Revision: 1
# Processed by: cddbd v1.5.1PL0 Copyright (c) Steve Scherf et al.
# Submitted via: ExactAudioCopy v0.95a5
#
DISCID=15029e03
DTITLE=Billy Ray Cyrus - In The Heart Of a Woman
DYEAR=1900
DGENRE=Rock
TTITLE0=In the heart of a woman
TTITLE1=Right face wrong time
TTITLE2=Never thought I'd fall in love with you
EXTD=
EXTT0=
EXTT1=
EXTT2=
PLAYORDER=
